# xmcd
#
# Track frame offsets:
#	150
#	12196
#	31597
#	44829
#	59487
#	74730
#	83981
#	94351
#	108032
#	125389
#	137322
#	149610
#	166128
#	172775
#
# Disc length: 2307 seconds
#
# Revision: 1
# Processed by: cddbd v1.5.1PL0 Copyright (c) Steve Scherf et al.
# Submitted via: audiograbber 1.83.01
#
DISCID=bb09010e
DTITLE=Skiffle Track - Skiffle Track
DYEAR=1900
DGENRE=
TTITLE0=Don't you rock me Daddy-O
TTITLE1=Lonesome traveller
TTITLE2=K. C. Moan
TTITLE3=Jackson
TTITLE4=Just a closer walk
TTITLE5=This little light
TTITLE6=Gambling man
TTITLE7=Jessie James
TTITLE8=Help me make it
TTITLE9=Bill Bailey
TTITLE10=Jack o'Diamonds
TTITLE11=This train
TTITLE12=Stranger of the shore
TTITLE13=no track
EXTD=
EXTT0=
EXTT1=
EXTT2=
EXTT3=
EXTT4=
EXTT5=
EXTT6=
EXTT7=
EXTT8=
EXTT9=
EXTT10=
EXTT11=
EXTT12=
EXTT13=
PLAYORDER=
